<svg width="128" height="128" viewBox="0 0 128 128" fill="none" xmlns="http://www.w3.org/2000/svg">
<path d="M63.76 28.52C68.6 28.52 72.52 24.6 72.52 19.76C72.52 14.92 68.6 11 63.76 11C58.92 11 55 14.92 55 19.76C55 24.6 58.92 28.52 63.76 28.52Z" stroke="black" stroke-width="4" stroke-linecap="round" stroke-linejoin="round"/>
<path d="M101.68 49.5503C106.52 49.5503 110.44 45.6303 110.44 40.7903C110.44 35.9503 106.52 32.0303 101.68 32.0303C96.8399 32.0303 92.9199 35.9503 92.9199 40.7903C92.9199 45.6303 96.8399 49.5503 101.68 49.5503Z" stroke="black" stroke-width="4" stroke-linecap="round" stroke-linejoin="round"/>
<path d="M101.68 93.9302C106.52 93.9302 110.44 90.0102 110.44 85.1702C110.44 80.3302 106.52 76.4102 101.68 76.4102C96.8399 76.4102 92.9199 80.3302 92.9199 85.1702C92.9199 90.0102 96.8399 93.9302 101.68 93.9302Z" stroke="black" stroke-width="4" stroke-linecap="round" stroke-linejoin="round"/>
<path d="M63.76 116.12C68.6 116.12 72.52 112.2 72.52 107.36C72.52 102.52 68.6 98.5996 63.76 98.5996C58.92 98.5996 55 102.52 55 107.36C55 112.2 58.92 116.12 63.76 116.12Z" stroke="black" stroke-width="4" stroke-linecap="round" stroke-linejoin="round"/>
<path d="M25.76 93.9302C30.6 93.9302 34.52 90.0102 34.52 85.1702C34.52 80.3302 30.6 76.4102 25.76 76.4102C20.92 76.4102 17 80.3302 17 85.1702C17 90.0102 20.92 93.9302 25.76 93.9302Z" stroke="black" stroke-width="4" stroke-linecap="round" stroke-linejoin="round"/>
<path d="M25.76 49.5503C30.6 49.5503 34.52 45.6303 34.52 40.7903C34.52 35.9503 30.6 32.0303 25.76 32.0303C20.92 32.0303 17 35.9503 17 40.7903C17 45.6303 20.92 49.5503 25.76 49.5503Z" stroke="black" stroke-width="4" stroke-linecap="round" stroke-linejoin="round"/>
<path d="M33.3501 44.8701L48.5301 54.2101" stroke="black" stroke-width="4" stroke-linejoin="round"/>
<path d="M78.9099 71.7402L94.0899 81.0802" stroke="black" stroke-width="4" stroke-linejoin="round"/>
<path d="M63.7801 28.5195L63.7601 46.1795C54.1301 46.1795 46.3201 53.9895 46.3201 63.6195C46.3201 73.2495 54.1301 81.0595 63.7601 81.0595C73.3901 81.0595 81.2001 73.2495 81.2001 63.6195C81.2001 58.2195 78.7501 53.3995 74.9001 50.1995" stroke="black" stroke-width="4" stroke-linecap="round" stroke-linejoin="round"/>
<path d="M63.76 81.0605V98.6005" stroke="black" stroke-width="4" stroke-linejoin="round"/>
<path d="M33.3501 81.0802L48.5301 71.7402" stroke="black" stroke-width="4" stroke-linejoin="round"/>
<path d="M78.9099 54.2199L94.0899 44.8799" stroke="black" stroke-width="4" stroke-linejoin="round"/>
</svg>
